<svg xmlns="http://www.w3.org/2000/svg" viewBox="0 0 720 720"><style>#a{fill:oklch(15.3%.006 107.1)}@media (prefers-color-scheme:dark){#a{fill:oklch(1 0 0)}}</style><path id="a" d="M540.704 230q29.952 0 54.528 10.368 24.96 10.368 43.392 29.184 18.816 18.816 28.8 44.16t9.984 55.296-9.984 55.296-28.8 44.16q-18.432 18.816-43.392 29.184-24.576 10.368-54.528 10.368-29.568 0-54.528-10.368t-43.776-28.8q-18.431-18.816-28.416-44.16Q404 398.96 404 369.008q0-30.336 9.984-55.296 9.984-25.344 28.416-44.16 18.816-18.816 43.776-29.184T540.704 230M404 505h-59L245 236h59zm-114.496-1.2h-59.136l-21.112-56.448H106.113L84.832 503.8H28L133.216 235h51.456zm251.2-219.272q-16.896 0-31.104 6.528-14.208 6.144-24.96 17.664-10.752 11.136-16.512 26.496-5.376 15.36-5.376 33.792t5.376 33.792q5.76 15.36 16.512 26.88t24.96 17.664 31.104 6.144 31.104-6.144q14.592-6.144 24.96-17.664t16.128-26.88q6.144-15.36 6.144-33.792t-6.144-33.792q-5.76-15.36-16.128-26.496-10.369-11.52-24.96-17.664-14.208-6.528-31.104-6.528M157.792 304.12a1365 1365 0 0 1-5.76 19.2 406 406 0 0 1-6.528 18.816 799 799 0 0 0-6.528 18.048l-15.346 40.704h68.248l-15.654-41.856a1316 1316 0 0 1-5.76-15.744q-3.072-9.6-6.528-20.352a15412 15412 0 0 1-6.09-18.987z"/></svg>